<svg id="Layer_1" enable-background="new 0 0 510.008 510.008" height="512" viewBox="0 0 510.008 510.008" width="512" xmlns="http://www.w3.org/2000/svg"><path d="m506.292 209.126-40.423-46.198 33.255-9.501c7.966-2.276 12.578-10.578 10.302-18.543-2.275-7.966-10.579-12.581-18.543-10.302l-44.459 12.703-42.252-77.462c-2.628-4.819-7.679-7.817-13.168-7.817h-272c-5.489 0-10.54 2.999-13.168 7.817l-42.252 77.462-44.459-12.703c-7.965-2.277-16.268 2.337-18.543 10.302s2.336 16.268 10.302 18.543l33.255 9.501-40.424 46.198c-2.393 2.734-3.711 6.244-3.711 9.877v160c0 7.558 5.663 15 16 15v49c0 8.284 6.716 15 15 15h64c8.284 0 15-6.716 15-15v-41h290v41c0 8.284 6.716 15 15 15h64c8.284 0 15-6.716 15-15v-49c10.407 0 16-7.52 16-15v-160c0-3.632-1.319-7.142-3.712-9.877zm-51.288 120.878h25v34c-11.606 0-40.749 0-51.609 0-5.312-24.595-23.4-44.475-46.948-52.344l12.023-24.046 86.534-24.724v37.114h-25c-8.284 0-15 6.716-15 15s6.716 15 15 15zm-373.391 34c-8.528 0-37.392 0-51.609 0v-34h25c8.284 0 15-6.716 15-15s-6.716-15-15-15h-25v-37.114l86.534 24.724 12.023 24.046c-23.548 7.869-41.636 27.749-46.948 52.344zm-3.803-194h354.387l9.985 11.411-58.463 32.476c-3.995 2.219-6.76 6.139-7.512 10.647l-3.244 19.466h-235.92l-3.244-19.466c-.751-4.508-3.517-8.428-7.512-10.647l-58.463-32.476zm402.194 61.685-78.303 22.372 2.91-17.457 57.778-32.096 17.615 20.131zm-432.385-27.18 57.778 32.096 2.91 17.457-78.303-22.372v-7.049zm95.655 69.495h67.924c-4.227 10.854-4.295 22.972 0 34h-50.924zm94.73 17c0-9.374 7.626-17 17-17s17 7.626 17 17-7.626 17-17 17-17-7.626-17-17zm60.805-17h67.924l-17 34h-50.924c4.227-10.854 4.295-22.972 0-34zm-170.901-192h254.192l31.636 58h-317.464zm-47.904 346h-34v-34h34zm30.598-56c3.331-19.285 20.181-34 40.402-34h208c20.222 0 37.071 14.715 40.402 34zm353.402 56h-34v-34h34z"/></svg>